<svg width="24" height="24" viewBox="0 0 24 24" fill="none" xmlns="http://www.w3.org/2000/svg">
<path d="M23.9914 23.4022L22.0175 6.69489C21.9846 6.4259 21.7215 6.21669 21.4254 6.21669H17.7737V5.2005C17.7737 2.33126 15.2076 0 12.0493 0C8.89111 0 6.32504 2.33126 6.32504 5.2005V6.21669H2.57463C2.27854 6.21669 2.01536 6.4259 1.98246 6.69489L0.00855783 23.4022C-0.0243405 23.5517 0.0414561 23.7011 0.140151 23.8207C0.238846 23.9402 0.403338 24 0.56783 24H23.4322C23.5967 24 23.7612 23.9402 23.8598 23.8207C23.9585 23.7011 24.0243 23.5517 23.9914 23.4022ZM17.1815 9.23537C17.4776 9.23537 17.7079 9.44458 17.7079 9.71357C17.7079 9.98257 17.4776 10.1918 17.1815 10.1918C16.8854 10.1918 16.6551 9.98257 16.6551 9.71357C16.6551 9.44458 16.8854 9.23537 17.1815 9.23537ZM7.50938 5.2005C7.50938 2.92902 9.54907 1.07597 12.0493 1.07597C14.5496 1.07597 16.5893 2.92902 16.5893 5.2005V6.21669H7.50938V5.2005ZM6.91721 9.23537C7.21329 9.23537 7.44358 9.44458 7.44358 9.71357C7.44358 9.98257 7.21329 10.1918 6.91721 10.1918C6.62112 10.1918 6.39083 9.98257 6.39083 9.71357C6.39083 9.44458 6.62112 9.23537 6.91721 9.23537ZM1.25869 22.8941L3.101 7.26276H6.32504V8.24907C5.66707 8.45828 5.20649 9.02615 5.20649 9.68369C5.20649 10.5205 5.96316 11.208 6.88431 11.208C7.80546 11.208 8.56213 10.5205 8.56213 9.68369C8.56213 9.02615 8.10155 8.45828 7.44358 8.24907V7.26276H16.5235V8.24907C15.8656 8.45828 15.405 9.02615 15.405 9.68369C15.405 10.5205 16.1616 11.208 17.0828 11.208C18.0039 11.208 18.7606 10.5205 18.7606 9.68369C18.7606 9.02615 18.3 8.45828 17.6421 8.24907V7.26276H20.9977L22.84 22.8941H1.25869Z" fill="#272727"/>
</svg>
