<svg width="26" height="24" viewBox="0 0 26 24" fill="none" xmlns="http://www.w3.org/2000/svg">
<path d="M19.0938 0C17.6829 0 16.3894 0.467469 15.2493 1.38945C14.1562 2.27336 13.4284 3.39919 13 4.21784C12.5716 3.39913 11.8438 2.27336 10.7507 1.38945C9.61061 0.467469 8.31711 0 6.90625 0C2.96908 0 0 3.36727 0 7.8326C0 12.6567 3.70414 15.9573 9.31171 20.9539C10.264 21.8025 11.3433 22.7643 12.4652 23.7901C12.613 23.9255 12.803 24 13 24C13.197 24 13.387 23.9255 13.5348 23.7901C14.6568 22.7642 15.7361 21.8024 16.6889 20.9534C22.2959 15.9573 26 12.6567 26 7.8326C26 3.36727 23.0309 0 19.0938 0Z" fill="white"/>
<path d="M24.103 2.35762C22.8206 0.837268 21.0416 0 19.0938 0C16.3542 0 14.6198 1.70956 13.6472 3.14374C13.3949 3.51589 13.1802 3.88905 13 4.2402C12.8198 3.88905 12.6052 3.51589 12.3528 3.14374C11.3802 1.70956 9.6458 0 6.90625 0C4.95838 0 3.17936 0.837322 1.89693 2.35767C0.673715 3.80798 0 5.75036 0 7.82697C0 10.0874 0.844644 12.1899 2.65814 14.4434C4.27893 16.4575 6.61065 18.5336 9.31074 20.9377C10.3169 21.8335 11.3573 22.7599 12.465 23.7725L12.4983 23.803C12.6419 23.9344 12.8209 24 13 24C13.1791 24 13.3581 23.9343 13.5017 23.803L13.535 23.7725C14.6427 22.7599 15.6831 21.8336 16.6894 20.9375C19.3893 18.5337 21.7211 16.4576 23.3419 14.4434C25.1554 12.1898 26 10.0874 26 7.82697C26 5.75036 25.3263 3.80798 24.103 2.35762ZM15.7012 19.7261C14.8339 20.4983 13.9412 21.2931 13 22.148C12.0588 21.2932 11.1661 20.4984 10.2986 19.726C5.01439 15.0211 1.52344 11.9129 1.52344 7.82697C1.52344 6.13811 2.06197 4.56948 3.03987 3.41009C4.02898 2.23754 5.40206 1.59177 6.90625 1.59177C8.99483 1.59177 10.345 2.93617 11.1097 4.06399C11.7957 5.0755 12.1537 6.09519 12.2758 6.4866C12.3779 6.81424 12.6702 7.03597 13 7.03597C13.3298 7.03597 13.6221 6.81424 13.7242 6.4866C13.8463 6.09519 14.2043 5.0755 14.8903 4.06394C15.655 2.93617 17.0052 1.59177 19.0938 1.59177C20.5979 1.59177 21.971 2.23754 22.9601 3.41009C23.938 4.56948 24.4766 6.13811 24.4766 7.82697C24.4766 11.9129 20.9856 15.0211 15.7012 19.7261Z" fill="#272727"/>
</svg>
