<svg width="28" height="24" viewBox="0 0 28 24" fill="none" xmlns="http://www.w3.org/2000/svg">
<path d="M20.5625 0C19.0431 0 17.6501 0.467469 16.4223 1.38945C15.2451 2.27336 14.4614 3.39919 14 4.21784C13.5386 3.39913 12.7549 2.27336 11.5777 1.38945C10.3499 0.467469 8.95688 0 7.4375 0C3.19747 0 0 3.36727 0 7.8326C0 12.6567 3.98907 15.9573 10.028 20.9539C11.0535 21.8025 12.2159 22.7643 13.424 23.7901C13.5833 23.9255 13.7878 24 14 24C14.2122 24 14.4167 23.9255 14.576 23.7901C15.7842 22.7642 16.9466 21.8024 17.9727 20.9534C24.0109 15.9573 28 12.6567 28 7.8326C28 3.36727 24.8025 0 20.5625 0Z" fill="white"/>
</svg>
