<svg width="44" height="37" viewBox="0 0 44 37" xmlns="http://www.w3.org/2000/svg">
<path d="M21.5664 6.75156L22 7.50627L22.4335 6.75157C23.1381 5.52511 24.3279 3.85225 26.103 2.54463L25.8064 2.14207L26.103 2.54463C27.9469 1.18629 30.032 0.5 32.3125 0.5C38.684 0.5 43.5 5.45185 43.5 12.0753C43.5 15.6321 42.0084 18.6514 39.3024 21.7616C36.584 24.8862 32.6839 28.0541 27.9276 31.9149L28.2428 32.3031L27.9276 31.9149L27.9273 31.9152C26.3152 33.2238 24.4864 34.7084 22.5851 36.2922L22.5849 36.2924C22.4268 36.4242 22.2194 36.5 22 36.5C21.7806 36.5 21.5733 36.4242 21.4152 36.2924L21.4149 36.2922C19.5148 34.7094 17.6869 33.2256 16.0764 31.9182L16.0734 31.9158L16.0734 31.9157C11.3166 28.0545 7.41631 24.8864 4.6977 21.7617C1.9916 18.6513 0.5 15.6321 0.5 12.0753C0.5 5.45185 5.31599 0.5 11.6875 0.5C13.968 0.5 16.0531 1.18629 17.897 2.54463L18.1936 2.14207L17.897 2.54463C19.6721 3.85225 20.8619 5.52503 21.5664 6.75156Z" fill="currentColor" stroke="#4D4D4D"/>
</svg>
