<svg width="22" height="24" viewBox="0 0 22 24" fill="none" xmlns="http://www.w3.org/2000/svg">
<mask id="path-1-inside-1_6_9" fill="white">
<path d="M10.8336 11.5609C12.5787 11.5609 14.0895 10.9913 15.3244 9.86737C16.5588 8.74365 17.1849 7.36871 17.1849 5.78027C17.1849 4.19238 16.559 2.81726 15.3242 1.69318C14.0893 0.569641 12.5785 0 10.8336 0C9.08837 0 7.5777 0.569641 6.34305 1.69336C5.1084 2.81708 4.48232 4.1922 4.48232 5.78027C4.48232 7.36871 5.1084 8.74384 6.34305 9.86755C7.5781 10.9911 9.08898 11.5609 10.8336 11.5609ZM7.43587 2.68781C8.38323 1.82556 9.49456 1.40643 10.8336 1.40643C12.1725 1.40643 13.284 1.82556 14.2316 2.68781C15.1789 3.55023 15.6396 4.56189 15.6396 5.78027C15.6396 6.99902 15.1789 8.0105 14.2316 8.87292C13.284 9.73535 12.1725 10.1545 10.8336 10.1545C9.49496 10.1545 8.38363 9.73517 7.43587 8.87292C6.4883 8.01068 6.0276 6.99902 6.0276 5.78027C6.0276 4.56189 6.4883 3.55023 7.43587 2.68781Z"/>
<path d="M21.9467 18.4548C21.9111 17.9872 21.8391 17.4771 21.733 16.9384C21.626 16.3956 21.4882 15.8826 21.3232 15.4136C21.1526 14.929 20.9211 14.4503 20.6344 13.9916C20.3372 13.5156 19.988 13.101 19.5961 12.7599C19.1863 12.403 18.6845 12.1161 18.1043 11.9068C17.5261 11.6986 16.8854 11.5931 16.1999 11.5931C15.9308 11.5931 15.6704 11.6937 15.1677 11.9916C14.8583 12.1752 14.4963 12.3876 14.0924 12.6226C13.7469 12.8229 13.279 13.0106 12.701 13.1805C12.1371 13.3466 11.5645 13.4308 10.9992 13.4308C10.4343 13.4308 9.86171 13.3466 9.2974 13.1805C8.72001 13.0107 8.25186 12.8231 7.90704 12.6227C7.50689 12.39 7.14476 12.1776 6.83071 11.9914C6.32836 11.6935 6.06804 11.593 5.79885 11.593C5.11323 11.593 4.47267 11.6986 3.89467 11.907C3.31487 12.1159 2.81292 12.4028 2.40271 12.7601C2.01081 13.1014 1.66156 13.5157 1.36461 13.9916C1.07833 14.4503 0.846572 14.9288 0.67597 15.4138C0.511202 15.8828 0.373393 16.3956 0.266364 16.9384C0.16014 17.4763 0.0883187 17.9866 0.0527096 18.4554C0.017704 18.9137 0 19.3907 0 19.8726C0 21.1254 0.43757 22.1396 1.30044 22.8876C2.15264 23.6257 3.28006 24 4.65152 24H17.3485C18.7195 24 19.847 23.6257 20.6994 22.8876C21.5624 22.1402 22 21.1256 22 19.8724C21.9998 19.3889 21.9819 18.9119 21.9467 18.4548ZM19.6339 21.8687C19.0708 22.3564 18.3232 22.5936 17.3483 22.5936H4.65152C3.67639 22.5936 2.9288 22.3564 2.36589 21.8688C1.81365 21.3904 1.54527 20.7372 1.54527 19.8726C1.54527 19.4229 1.56157 18.9789 1.59416 18.5526C1.62595 18.1344 1.69093 17.675 1.7873 17.1868C1.88246 16.7047 2.00357 16.2523 2.14761 15.8427C2.28582 15.4499 2.47433 15.061 2.7081 14.6863C2.93121 14.3293 3.18792 14.0229 3.47119 13.7761C3.73614 13.5452 4.0701 13.3563 4.46361 13.2145C4.82755 13.0834 5.23655 13.0117 5.68056 13.0009C5.73468 13.027 5.83104 13.077 5.98716 13.1697C6.30483 13.3581 6.67098 13.5731 7.07575 13.8083C7.53203 14.0731 8.11989 14.3123 8.82221 14.5186C9.54023 14.7299 10.2725 14.8372 10.9994 14.8372C11.7263 14.8372 12.4588 14.7299 13.1764 14.5188C13.8793 14.3121 14.467 14.0731 14.9238 13.808C15.3381 13.567 15.694 13.3583 16.0116 13.1697C16.1677 13.0772 16.2641 13.027 16.3182 13.0009C16.7624 13.0117 17.1714 13.0834 17.5356 13.2145C17.9289 13.3563 18.2629 13.5454 18.5278 13.7761C18.8111 14.0228 19.0678 14.3291 19.2909 14.6865C19.5249 15.061 19.7136 15.4501 19.8516 15.8425C19.9958 16.2526 20.1171 16.7049 20.2121 17.1866C20.3083 17.6757 20.3734 18.1353 20.4052 18.5528C20.438 18.9774 20.4545 19.4216 20.4547 19.8726C20.4545 20.7374 20.1861 21.3904 19.6339 21.8687Z"/>
</mask>
<path d="M10.8336 11.5609C12.5787 11.5609 14.0895 10.9913 15.3244 9.86737C16.5588 8.74365 17.1849 7.36871 17.1849 5.78027C17.1849 4.19238 16.559 2.81726 15.3242 1.69318C14.0893 0.569641 12.5785 0 10.8336 0C9.08837 0 7.5777 0.569641 6.34305 1.69336C5.1084 2.81708 4.48232 4.1922 4.48232 5.78027C4.48232 7.36871 5.1084 8.74384 6.34305 9.86755C7.5781 10.9911 9.08898 11.5609 10.8336 11.5609ZM7.43587 2.68781C8.38323 1.82556 9.49456 1.40643 10.8336 1.40643C12.1725 1.40643 13.284 1.82556 14.2316 2.68781C15.1789 3.55023 15.6396 4.56189 15.6396 5.78027C15.6396 6.99902 15.1789 8.0105 14.2316 8.87292C13.284 9.73535 12.1725 10.1545 10.8336 10.1545C9.49496 10.1545 8.38363 9.73517 7.43587 8.87292C6.4883 8.01068 6.0276 6.99902 6.0276 5.78027C6.0276 4.56189 6.4883 3.55023 7.43587 2.68781Z" fill="#272727"/>
<path d="M21.9467 18.4548C21.9111 17.9872 21.8391 17.4771 21.733 16.9384C21.626 16.3956 21.4882 15.8826 21.3232 15.4136C21.1526 14.929 20.9211 14.4503 20.6344 13.9916C20.3372 13.5156 19.988 13.101 19.5961 12.7599C19.1863 12.403 18.6845 12.1161 18.1043 11.9068C17.5261 11.6986 16.8854 11.5931 16.1999 11.5931C15.9308 11.5931 15.6704 11.6937 15.1677 11.9916C14.8583 12.1752 14.4963 12.3876 14.0924 12.6226C13.7469 12.8229 13.279 13.0106 12.701 13.1805C12.1371 13.3466 11.5645 13.4308 10.9992 13.4308C10.4343 13.4308 9.86171 13.3466 9.2974 13.1805C8.72001 13.0107 8.25186 12.8231 7.90704 12.6227C7.50689 12.39 7.14476 12.1776 6.83071 11.9914C6.32836 11.6935 6.06804 11.593 5.79885 11.593C5.11323 11.593 4.47267 11.6986 3.89467 11.907C3.31487 12.1159 2.81292 12.4028 2.40271 12.7601C2.01081 13.1014 1.66156 13.5157 1.36461 13.9916C1.07833 14.4503 0.846572 14.9288 0.67597 15.4138C0.511202 15.8828 0.373393 16.3956 0.266364 16.9384C0.16014 17.4763 0.0883187 17.9866 0.0527096 18.4554C0.017704 18.9137 0 19.3907 0 19.8726C0 21.1254 0.43757 22.1396 1.30044 22.8876C2.15264 23.6257 3.28006 24 4.65152 24H17.3485C18.7195 24 19.847 23.6257 20.6994 22.8876C21.5624 22.1402 22 21.1256 22 19.8724C21.9998 19.3889 21.9819 18.9119 21.9467 18.4548ZM19.6339 21.8687C19.0708 22.3564 18.3232 22.5936 17.3483 22.5936H4.65152C3.67639 22.5936 2.9288 22.3564 2.36589 21.8688C1.81365 21.3904 1.54527 20.7372 1.54527 19.8726C1.54527 19.4229 1.56157 18.9789 1.59416 18.5526C1.62595 18.1344 1.69093 17.675 1.7873 17.1868C1.88246 16.7047 2.00357 16.2523 2.14761 15.8427C2.28582 15.4499 2.47433 15.061 2.7081 14.6863C2.93121 14.3293 3.18792 14.0229 3.47119 13.7761C3.73614 13.5452 4.0701 13.3563 4.46361 13.2145C4.82755 13.0834 5.23655 13.0117 5.68056 13.0009C5.73468 13.027 5.83104 13.077 5.98716 13.1697C6.30483 13.3581 6.67098 13.5731 7.07575 13.8083C7.53203 14.0731 8.11989 14.3123 8.82221 14.5186C9.54023 14.7299 10.2725 14.8372 10.9994 14.8372C11.7263 14.8372 12.4588 14.7299 13.1764 14.5188C13.8793 14.3121 14.467 14.0731 14.9238 13.808C15.3381 13.567 15.694 13.3583 16.0116 13.1697C16.1677 13.0772 16.2641 13.027 16.3182 13.0009C16.7624 13.0117 17.1714 13.0834 17.5356 13.2145C17.9289 13.3563 18.2629 13.5454 18.5278 13.7761C18.8111 14.0228 19.0678 14.3291 19.2909 14.6865C19.5249 15.061 19.7136 15.4501 19.8516 15.8425C19.9958 16.2526 20.1171 16.7049 20.2121 17.1866C20.3083 17.6757 20.3734 18.1353 20.4052 18.5528C20.438 18.9774 20.4545 19.4216 20.4547 19.8726C20.4545 20.7374 20.1861 21.3904 19.6339 21.8687Z" fill="#272727"/>
<path d="M15.3244 9.86737L15.9975 10.6069L15.9976 10.6069L15.3244 9.86737ZM15.3242 1.69318L15.9974 0.953681L15.9972 0.953517L15.3242 1.69318ZM6.34305 9.86755L5.66995 10.6071L5.67013 10.6073L6.34305 9.86755ZM7.43587 2.68781L6.76277 1.94826L7.43587 2.68781ZM14.2316 2.68781L14.9048 1.94833L14.9046 1.94818L14.2316 2.68781ZM14.2316 8.87292L14.9047 9.61247L14.9048 9.6124L14.2316 8.87292ZM7.43587 8.87292L6.76285 9.61255L6.76292 9.61262L7.43587 8.87292ZM21.9467 18.4548L20.9496 18.5308L20.9496 18.5316L21.9467 18.4548ZM21.733 16.9384L22.7142 16.7452L22.7141 16.7449L21.733 16.9384ZM21.3232 15.4136L22.2666 15.0818L22.2665 15.0816L21.3232 15.4136ZM20.6344 13.9916L19.7861 14.5211L19.7864 14.5216L20.6344 13.9916ZM19.5961 12.7599L18.9394 13.514L18.9395 13.5142L19.5961 12.7599ZM18.1043 11.9068L18.4436 10.9661L18.4431 10.9659L18.1043 11.9068ZM15.1677 11.9916L14.6579 11.1313L14.6573 11.1316L15.1677 11.9916ZM14.0924 12.6226L14.594 13.4876L14.5951 13.487L14.0924 12.6226ZM12.701 13.1805L12.4189 12.2211L12.4185 12.2212L12.701 13.1805ZM9.2974 13.1805L9.57973 12.2212L9.57944 12.2211L9.2974 13.1805ZM7.90704 12.6227L7.40428 13.4872L7.40472 13.4874L7.90704 12.6227ZM6.83071 11.9914L6.32063 12.8515L6.32067 12.8515L6.83071 11.9914ZM3.89467 11.907L4.23367 12.8478L4.23382 12.8477L3.89467 11.907ZM2.40271 12.7601L1.74597 12.006L1.74596 12.006L2.40271 12.7601ZM1.36461 13.9916L2.21294 14.5211L2.213 14.521L1.36461 13.9916ZM0.67597 15.4138L-0.267381 15.082L-0.267486 15.0823L0.67597 15.4138ZM0.266364 16.9384L1.24742 17.1321L1.24747 17.1318L0.266364 16.9384ZM0.0527096 18.4554L1.04981 18.5315L1.04984 18.5311L0.0527096 18.4554ZM1.30044 22.8876L0.645423 23.6433L0.645749 23.6435L1.30044 22.8876ZM20.6994 22.8876L21.354 23.6436L21.354 23.6436L20.6994 22.8876ZM22 19.8724H23V19.872L22 19.8724ZM19.6339 21.8687L18.9792 21.1127L18.9792 21.1128L19.6339 21.8687ZM2.36589 21.8688L1.71109 22.6246L1.71115 22.6247L2.36589 21.8688ZM1.59416 18.5526L2.59125 18.6288L2.59129 18.6284L1.59416 18.5526ZM1.7873 17.1868L2.76836 17.3805L2.76837 17.3805L1.7873 17.1868ZM2.14761 15.8427L1.20431 15.5107L1.20425 15.5109L2.14761 15.8427ZM2.7081 14.6863L1.86005 14.1564L1.85973 14.1569L2.7081 14.6863ZM3.47119 13.7761L4.12814 14.5301L4.12817 14.53L3.47119 13.7761ZM4.46361 13.2145L4.80246 14.1554L4.80253 14.1554L4.46361 13.2145ZM5.68056 13.0009L6.1161 12.1007L5.89821 11.9953L5.65624 12.0012L5.68056 13.0009ZM5.98716 13.1697L5.4768 14.0296L5.47702 14.0298L5.98716 13.1697ZM7.07575 13.8083L6.5732 14.6729L6.57385 14.6733L7.07575 13.8083ZM8.82221 14.5186L9.10453 13.5593L9.10412 13.5592L8.82221 14.5186ZM13.1764 14.5188L12.8942 13.5594L12.8941 13.5595L13.1764 14.5188ZM14.9238 13.808L15.4258 14.6729L15.4267 14.6724L14.9238 13.808ZM16.0116 13.1697L15.502 12.3093L15.5011 12.3098L16.0116 13.1697ZM16.3182 13.0009L16.3425 12.0012L16.1006 11.9953L15.8827 12.1007L16.3182 13.0009ZM17.5356 13.2145L17.8746 12.2738L17.8743 12.2737L17.5356 13.2145ZM18.5278 13.7761L17.8711 14.5303L17.8711 14.5303L18.5278 13.7761ZM19.2909 14.6865L18.4426 15.216L18.4428 15.2164L19.2909 14.6865ZM19.8516 15.8425L20.7949 15.5107L20.7949 15.5107L19.8516 15.8425ZM20.2121 17.1866L21.1933 16.9937L21.1932 16.9933L20.2121 17.1866ZM20.4052 18.5528L19.4081 18.6287L19.4082 18.6298L20.4052 18.5528ZM20.4547 19.8726L21.4547 19.8729V19.8722L20.4547 19.8726ZM10.8336 12.5609C12.8152 12.5609 14.5695 11.9066 15.9975 10.6069L14.6513 9.12782C13.6095 10.076 12.3421 10.5609 10.8336 10.5609V12.5609ZM15.9976 10.6069C17.4281 9.30462 18.1849 7.66614 18.1849 5.78027H16.1849C16.1849 7.07129 15.6896 8.18268 14.6512 9.12788L15.9976 10.6069ZM18.1849 5.78027C18.1849 3.89498 17.4283 2.2563 15.9974 0.953681L14.651 2.43267C15.6898 3.37822 16.1849 4.48979 16.1849 5.78027H18.1849ZM15.9972 0.953517C14.5693 -0.345668 12.815 -1 10.8336 -1V1C12.3419 1 13.6094 1.48495 14.6512 2.43284L15.9972 0.953517ZM10.8336 -1C8.85183 -1 7.09771 -0.345669 5.66995 0.95381L7.01615 2.43291C8.05769 1.48495 9.32491 1 10.8336 1V-1ZM5.66995 0.95381C4.23914 2.25606 3.48232 3.89476 3.48232 5.78027H5.48232C5.48232 4.48964 5.97766 3.37809 7.01615 2.43291L5.66995 0.95381ZM3.48232 5.78027C3.48232 7.66612 4.23911 9.30482 5.66995 10.6071L7.01615 9.128C5.97769 8.18285 5.48232 7.07131 5.48232 5.78027H3.48232ZM5.67013 10.6073C7.09813 11.9063 8.85232 12.5609 10.8336 12.5609V10.5609C9.32563 10.5609 8.05808 10.0758 7.01597 9.12784L5.67013 10.6073ZM8.10897 3.42736C8.86326 2.74084 9.73115 2.40643 10.8336 2.40643V0.406433C9.25797 0.406433 7.90321 0.910284 6.76277 1.94826L8.10897 3.42736ZM10.8336 2.40643C11.9359 2.40643 12.804 2.74084 13.5586 3.42743L14.9046 1.94818C13.764 0.91028 12.4091 0.406433 10.8336 0.406433V2.40643ZM13.5584 3.42728C14.3098 4.11127 14.6396 4.85943 14.6396 5.78027H16.6396C16.6396 4.26435 16.0481 2.98919 14.9048 1.94833L13.5584 3.42728ZM14.6396 5.78027C14.6396 6.70149 14.3098 7.44946 13.5584 8.13345L14.9048 9.6124C16.0481 8.57154 16.6396 7.29656 16.6396 5.78027H14.6396ZM13.5585 8.13338C12.804 8.82008 11.9359 9.15448 10.8336 9.15448V11.1545C12.4091 11.1545 13.764 10.6506 14.9047 9.61247L13.5585 8.13338ZM10.8336 9.15448C9.73174 9.15448 8.8637 8.82 8.10881 8.13323L6.76292 9.61262C7.90356 10.6503 9.25819 11.1545 10.8336 11.1545V9.15448ZM8.10889 8.1333C7.35752 7.44959 7.0276 6.70153 7.0276 5.78027H5.0276C5.0276 7.29652 5.61909 8.57178 6.76285 9.61255L8.10889 8.1333ZM7.0276 5.78027C7.0276 4.85945 7.35747 4.11133 8.10897 3.42736L6.76277 1.94826C5.61913 2.98913 5.0276 4.26433 5.0276 5.78027H7.0276ZM22.9438 18.3789C22.9047 17.8657 22.8265 17.316 22.7142 16.7452L20.7519 17.1315C20.8516 17.6381 20.9174 18.1087 20.9496 18.5308L22.9438 18.3789ZM22.7141 16.7449C22.5989 16.1605 22.4491 15.6007 22.2666 15.0818L20.3799 15.7455C20.5273 16.1644 20.6531 16.6307 20.7519 17.1318L22.7141 16.7449ZM22.2665 15.0816C22.0704 14.5246 21.8062 13.9798 21.4824 13.4616L19.7864 14.5216C20.0359 14.9208 20.2348 15.3333 20.38 15.7457L22.2665 15.0816ZM21.4827 13.4622C21.1375 12.909 20.7252 12.4169 20.2526 12.0056L18.9395 13.5142C19.2508 13.7851 19.537 14.1221 19.7861 14.5211L21.4827 13.4622ZM20.2528 12.0058C19.7379 11.5574 19.1247 11.2118 18.4436 10.9661L17.765 12.8475C18.2444 13.0204 18.6346 13.2487 18.9394 13.514L20.2528 12.0058ZM18.4431 10.9659C17.7444 10.7143 16.9875 10.5931 16.1999 10.5931V12.5931C16.7832 12.5931 17.3079 12.6829 17.7655 12.8477L18.4431 10.9659ZM16.1999 10.5931C15.6378 10.5931 15.173 10.826 14.6579 11.1313L15.6775 12.8519C15.9146 12.7114 16.0485 12.6456 16.1315 12.6135C16.1686 12.5992 16.1871 12.595 16.1927 12.5939C16.1966 12.5931 16.1974 12.5931 16.1999 12.5931V10.5931ZM14.6573 11.1316C14.351 11.3134 13.9917 11.5243 13.5896 11.7581L14.5951 13.487C15.001 13.251 15.3655 13.037 15.6781 12.8515L14.6573 11.1316ZM13.5907 11.7575C13.3399 11.903 12.9548 12.0636 12.4189 12.2211L12.983 14.1399C13.6032 13.9576 14.154 13.7428 14.594 13.4876L13.5907 11.7575ZM12.4185 12.2212C11.9426 12.3614 11.4651 12.4308 10.9992 12.4308V14.4308C11.6639 14.4308 12.3316 14.3317 12.9835 14.1397L12.4185 12.2212ZM10.9992 12.4308C10.5338 12.4308 10.0562 12.3614 9.57973 12.2212L9.01507 14.1398C9.66724 14.3317 10.3348 14.4308 10.9992 14.4308V12.4308ZM9.57944 12.2211C9.044 12.0637 8.65911 11.9031 8.40935 11.7581L7.40472 13.4874C7.84461 13.743 8.39602 13.9578 9.01536 14.1399L9.57944 12.2211ZM8.40979 11.7583C8.01144 11.5266 7.65182 11.3157 7.34076 11.1312L6.32067 12.8515C6.6377 13.0395 7.00234 13.2534 7.40428 13.4872L8.40979 11.7583ZM7.3408 11.1313C6.82583 10.8259 6.36112 10.593 5.79885 10.593V12.593C5.80144 12.593 5.80219 12.593 5.80611 12.5937C5.8116 12.5948 5.83014 12.599 5.86713 12.6133C5.94997 12.6453 6.0838 12.7111 6.32063 12.8515L7.3408 11.1313ZM5.79885 10.593C5.01089 10.593 4.25413 10.7144 3.55553 10.9662L4.23382 12.8477C4.69121 12.6828 5.21556 12.593 5.79885 12.593V10.593ZM3.55567 10.9662C2.87481 11.2115 2.26129 11.5572 1.74597 12.006L3.05945 13.5142C3.36455 13.2485 3.75492 13.0203 4.23367 12.8478L3.55567 10.9662ZM1.74596 12.006C1.2737 12.4173 0.86141 12.9091 0.516225 13.4623L2.213 14.521C2.46171 14.1224 2.74792 13.7855 3.05946 13.5142L1.74596 12.006ZM0.516289 13.4622C0.193254 13.9797 -0.0711813 14.5242 -0.267381 15.082L1.61932 15.7456C1.76432 15.3333 1.96341 14.9209 2.21294 14.5211L0.516289 13.4622ZM-0.267486 15.0823C-0.449729 15.601 -0.599487 16.1604 -0.71474 16.7449L1.24747 17.1318C1.34627 16.6308 1.47213 16.1645 1.61943 15.7453L-0.267486 15.0823ZM-0.714694 16.7446C-0.827401 17.3154 -0.905361 17.8655 -0.944417 18.3796L1.04984 18.5311C1.082 18.1078 1.14768 17.6372 1.24742 17.1321L-0.714694 16.7446ZM-0.944386 18.3792C-0.981424 18.8641 -1 19.3666 -1 19.8726H1C1 19.4148 1.01683 18.9633 1.04981 18.5315L-0.944386 18.3792ZM-1 19.8726C-1 21.3838 -0.459343 22.6856 0.645423 23.6433L1.95545 22.132C1.33448 21.5937 1 20.867 1 19.8726H-1ZM0.645749 23.6435C1.71695 24.5713 3.09387 25 4.65152 25V23C3.46626 23 2.58834 22.6802 1.95512 22.1317L0.645749 23.6435ZM4.65152 25H17.3485V23H4.65152V25ZM17.3485 25C18.9058 25 20.2826 24.5713 21.354 23.6436L20.0448 22.1317C19.4113 22.6802 18.5333 23 17.3485 23V25ZM21.354 23.6436C22.4595 22.6862 23 21.3838 23 19.8724H21C21 20.8674 20.6654 21.5942 20.0447 22.1317L21.354 23.6436ZM23 19.872C22.9998 19.3644 22.981 18.8619 22.9437 18.378L20.9496 18.5316C20.9828 18.9618 20.9998 19.4133 21 19.8729L23 19.872ZM18.9792 21.1128C18.6478 21.3998 18.1583 21.5936 17.3483 21.5936V23.5936C18.4882 23.5936 19.4938 23.313 20.2887 22.6245L18.9792 21.1128ZM17.3483 21.5936H4.65152V23.5936H17.3483V21.5936ZM4.65152 21.5936C3.84125 21.5936 3.35175 21.3998 3.02064 21.113L1.71115 22.6247C2.50585 23.3131 3.51153 23.5936 4.65152 23.5936V21.5936ZM3.0207 21.113C2.72848 20.8599 2.54527 20.5059 2.54527 19.8726H0.545275C0.545275 20.9686 0.898819 21.9209 1.71109 22.6246L3.0207 21.113ZM2.54527 19.8726C2.54527 19.4467 2.56072 19.0282 2.59125 18.6288L0.597072 18.4764C0.562419 18.9296 0.545275 19.3991 0.545275 19.8726H2.54527ZM2.59129 18.6284C2.61957 18.2563 2.67831 17.8367 2.76836 17.3805L0.806229 16.9932C0.703554 17.5133 0.632328 18.0125 0.597038 18.4768L2.59129 18.6284ZM2.76837 17.3805C2.85553 16.9389 2.9648 16.5332 3.09098 16.1744L1.20425 15.5109C1.04233 15.9713 0.909377 16.4706 0.806224 16.9932L2.76837 17.3805ZM3.09091 16.1746C3.20339 15.8549 3.35916 15.5319 3.55648 15.2157L1.85973 14.1569C1.5895 14.59 1.36825 15.0448 1.20431 15.5107L3.09091 16.1746ZM3.55616 15.2163C3.73331 14.9327 3.92779 14.7046 4.12814 14.5301L2.81423 13.0222C2.44805 13.3413 2.12912 13.7258 1.86005 14.1564L3.55616 15.2163ZM4.12817 14.53C4.28364 14.3945 4.50394 14.2629 4.80246 14.1554L4.12477 12.2737C3.63626 12.4496 3.18865 12.6959 2.8142 13.0222L4.12817 14.53ZM4.80253 14.1554C5.05164 14.0656 5.3525 14.0091 5.70488 14.0006L5.65624 12.0012C5.1206 12.0142 4.60346 12.1013 4.1247 12.2737L4.80253 14.1554ZM5.24503 13.901C5.2687 13.9125 5.33982 13.9483 5.4768 14.0296L6.49752 12.3097C6.32227 12.2057 6.20065 12.1416 6.1161 12.1007L5.24503 13.901ZM5.47702 14.0298C5.79753 14.2199 6.16624 14.4363 6.5732 14.6729L7.5783 12.9438C7.17571 12.7098 6.81212 12.4963 6.4973 12.3096L5.47702 14.0298ZM6.57385 14.6733C7.12024 14.9903 7.78829 15.2571 8.5403 15.4781L9.10412 13.5592C8.45148 13.3674 7.94383 13.1559 7.57765 12.9434L6.57385 14.6733ZM8.53989 15.4779C9.34666 15.7154 10.174 15.8372 10.9994 15.8372V13.8372C10.3711 13.8372 9.73379 13.7445 9.10453 13.5593L8.53989 15.4779ZM10.9994 15.8372C11.8248 15.8372 12.6523 15.7154 13.4586 15.4781L12.8941 13.5595C12.2653 13.7445 11.6277 13.8372 10.9994 13.8372V15.8372ZM13.4585 15.4782C14.2109 15.2569 14.8787 14.9904 15.4258 14.6729L14.4219 12.9431C14.0552 13.1559 13.5477 13.3672 12.8942 13.5594L13.4585 15.4782ZM15.4267 14.6724C15.8426 14.4304 16.2012 14.2201 16.5221 14.0296L15.5011 12.3098C15.1868 12.4964 14.8336 12.7036 14.421 12.9436L15.4267 14.6724ZM16.5212 14.0301C16.6595 13.9482 16.7307 13.9122 16.7538 13.901L15.8827 12.1007C15.7976 12.1419 15.676 12.2062 15.502 12.3093L16.5212 14.0301ZM16.2939 14.0006C16.6465 14.0091 16.9474 14.0656 17.1968 14.1554L17.8743 12.2737C17.3955 12.1013 16.8784 12.0142 16.3425 12.0012L16.2939 14.0006ZM17.1966 14.1553C17.4947 14.2627 17.7153 14.3946 17.8711 14.5303L19.1845 13.022C18.8104 12.6962 18.3631 12.4498 17.8746 12.2738L17.1966 14.1553ZM17.8711 14.5303C18.0712 14.7045 18.2655 14.9324 18.4426 15.216L20.1392 14.157C19.87 13.7258 19.5509 13.341 19.1845 13.0219L17.8711 14.5303ZM18.4428 15.2164C18.6402 15.5323 18.796 15.8553 18.9082 16.1743L20.7949 15.5107C20.6311 15.0449 20.4095 14.5896 20.1389 14.1566L18.4428 15.2164ZM18.9082 16.1742C19.0347 16.5339 19.1441 16.9394 19.231 17.38L21.1932 16.9933C21.0902 16.4704 20.9569 15.9713 20.7949 15.5107L18.9082 16.1742ZM19.2309 17.3796C19.3209 17.8375 19.3799 18.2575 19.4081 18.6287L21.4023 18.4769C21.367 18.0131 21.2956 17.5139 21.1933 16.9937L19.2309 17.3796ZM19.4082 18.6298C19.4389 19.0272 19.4545 19.4458 19.4547 19.8731L21.4547 19.8722C21.4545 19.3975 21.4372 18.9277 21.4023 18.4758L19.4082 18.6298ZM19.4547 19.8724C19.4546 20.506 19.2713 20.8598 18.9792 21.1127L20.2886 22.6246C21.101 21.921 21.4545 20.9689 21.4547 19.8729L19.4547 19.8724Z" fill="black" mask="url(#path-1-inside-1_6_9)"/>
</svg>
